<svg xmlns="http://www.w3.org/2000/svg" id="Layer_1" data-name="Layer 1" viewBox="235.18 258.41 366.97 60.8"><defs><style>.cls-1{fill:#fff;}.cls-2{fill:#9A36FF;}</style></defs><path class="cls-1" d="M270.66,260.08,264.4,293a83.21,83.21,0,0,0-1.46,12h-8.35l.45-5h-.13a11.87,11.87,0,0,1-10.12,5.69c-5.25,0-9.61-4.18-9.61-11.7,0-10.75,7.78-20.62,19.48-20.62a12.51,12.51,0,0,1,4.23.7l2.66-14Zm-13.09,21.25a6.12,6.12,0,0,0-3.61-1.07c-5.44,0-9.29,6.32-9.29,12.27,0,3.73,1.64,5.81,4.3,5.81s5.81-2.78,7-8.66Z"/><path class="cls-1" d="M291.9,303.21a26.42,26.42,0,0,1-11.5,2.41c-8.86,0-13.41-5-13.41-13,0-9.42,6.83-19.23,18-19.23,6.26,0,10.75,3.48,10.75,9.24,0,7.9-7.65,10.75-20,10.43a6.08,6.08,0,0,0,.94,3.16c1.21,1.58,3.29,2.41,5.95,2.41a19.43,19.43,0,0,0,8.66-2Zm-8-23.21c-4.23,0-6.64,3.48-7.27,6.39,7.08.06,10.63-.95,10.63-3.73C287.23,281.08,286,280,283.87,280Z"/><path class="cls-1" d="M294,305l3.92-20.87c.76-3.92,1.27-7.33,1.65-10.05h8.09l-.63,5.12h.12A13,13,0,0,1,318,273.36c5.06,0,7.91,3.1,7.91,8.41a39,39,0,0,1-.51,5.25L322,305H312.9l3.22-17.13a20.94,20.94,0,0,0,.32-3.48c0-2.15-.76-3.67-3-3.67-3,0-6.46,3.73-7.72,10.56L303.1,305Z"/><path class="cls-1" d="M343.38,265.4l-1.65,8.66h6.58L347,281h-6.57l-2.09,10.5a23.32,23.32,0,0,0-.51,3.92,2.28,2.28,0,0,0,2.6,2.59,17.93,17.93,0,0,0,2.53-.12L341.86,305a17.61,17.61,0,0,1-5.37.7c-5.44,0-8-2.78-8-6.64a29.39,29.39,0,0,1,.63-5.76l2.4-12.33h-3.92l1.26-6.89h4l1.26-6.51Z"/><path class="cls-1" d="M364.18,305c.07-1.83.26-3.92.45-6.13h-.19c-2.85,5.12-6.77,6.83-10.37,6.83-5.57,0-9.36-4.3-9.36-10.75,0-10.44,6.89-21.57,22.13-21.57a36.85,36.85,0,0,1,10.24,1.52l-3.28,16.19A75.24,75.24,0,0,0,372.59,305Zm2.66-24.47a13.83,13.83,0,0,0-2.47-.25c-5.88,0-10.18,7.21-10.18,13,0,3,1.2,5.12,3.73,5.12,2.72,0,6.07-3.1,7.47-10.68Z"/><path class="cls-1" d="M375.25,305l8.6-44.9H393l-8.6,44.9Z"/><path class="cls-1" d="M388.28,305l8.6-44.9H406l-8.6,44.9Z"/><path class="cls-1" d="M413.07,274.06,415,287.53c.45,3.16.76,5.37,1,7.33h.12c.7-1.83,1.39-3.85,2.72-7.2l5.63-13.6h9.61L423,296.26c-4.11,8.22-7.77,13.84-11.88,17.7a20.69,20.69,0,0,1-9.93,5.25l-2-7.78A18.33,18.33,0,0,0,404.4,309a16.19,16.19,0,0,0,5-5.38,1.77,1.77,0,0,0,.19-1.52l-6.14-28Z"/><path class="cls-2" d="M434.7,317.44l6.37-33.67c.72-3.77,1.3-7.28,1.69-10.4h2.8l-1,6.69h.13c3-4.55,7.41-7.41,12-7.41,6.83,0,9.36,5.59,9.36,10.92,0,11.06-8.32,21.72-18.39,21.72a14.86,14.86,0,0,1-7.35-1.5h-.13l-2.47,13.65Zm6.05-16.51a12.11,12.11,0,0,0,7.09,1.82c8.12,0,15.08-9.55,15.08-19,0-3.77-1.63-8.58-7.15-8.58-4.75,0-11.25,5.39-13.2,15.79Z"/><path class="cls-2" d="M496.72,285.72c0,8.52-6.24,19.57-16.51,19.57-7.74,0-11.58-6.24-11.58-12.75,0-10,7-19.89,16.52-19.89C493.6,272.65,496.72,279.41,496.72,285.72Zm-25,6.56c0,6,3.45,10.47,8.91,10.47,7.08,0,13.06-8.64,13.06-17.1,0-4.16-2-10.53-8.71-10.53C477.28,275.12,471.69,283.7,471.69,292.28Z"/><path class="cls-2" d="M499.38,304.57l4-21.06c.65-3.71,1.17-7.15,1.56-10.14h2.67c-.33,2.21-.59,4.42-1,7h.19c1.95-4.36,5.2-7.74,9.3-7.74a9.71,9.71,0,0,1,1.43.13l-.59,3a4.23,4.23,0,0,0-1.43-.13c-3.9,0-8.9,5.85-10.33,13.78l-2.86,15.15Z"/><path class="cls-2" d="M529.67,265.17l-1.56,8.2H536l-.45,2.4h-8l-3.38,18.07a28.59,28.59,0,0,0-.65,5.6c0,2.08,1,3.31,3.12,3.31a9.15,9.15,0,0,0,2.54-.32l.26,2.34a10.28,10.28,0,0,1-3.38.45c-4.16,0-5.59-2.86-5.59-5.59a28.61,28.61,0,0,1,.71-5.92l3.45-17.94h-4.75l.46-2.4h4.81l1.36-7.35Z"/><path class="cls-2" d="M556.13,304.57a67.18,67.18,0,0,1,.84-9.23h-.13c-3.64,7.28-8.19,10-13.06,10-5.46,0-8.65-4.42-8.65-10,0-11.12,8.58-22.69,21.06-22.69a29.5,29.5,0,0,1,7.22.91l-3.12,16.25a71.11,71.11,0,0,0-1.37,14.76Zm4-28.8a12.21,12.21,0,0,0-4.49-.58c-9.43,0-17.42,9.1-17.49,19.63,0,3.77,1.17,7.93,6.31,7.93,5.59,0,12-7.47,13.65-16.19Z"/><path class="cls-2" d="M566.2,304.57,575,258.41h3l-8.84,46.16Z"/><path class="cls-1" d="M591.29,261.65h-6l.44-2.72h6Zm10.86,4.2H584.58l-.44,2.73h17.57Zm-7.5,6.93H583.46L583,275.5h11.19Z"/></svg>
